PathFileType	4	(X/Y/Z)	C:/Users/opensim2020/Desktop/walking_exp_matlab/subject02_walking06_straight_01.trc																																																																																																																									
DataRate	CameraRate	NumFrames	NumMarkers	Units	OrigDataRate	OrigDataStartFrame	OrigNumFrames																																																																																																																					
100	100	6	41	mm	100	908	205																																																																																																																					
Frame#	Time	LFHD			RFHD			LBHD			RBHD			C7			T10			CLAV			STRN			RBAK			LSHO			LUPA			LELB			LFRM			LWRA			LWRB			LFIN			RSHO			RUPA			RELB			RFRM			RWRA			RWRB			RFIN			LASI			RASI			LPSI			RPSI			LTHI			LKNE			LTIB			LANK			LHEE			LTOE			RTHI			RKNE			RTIB			RANK			RHEE			RTOE			*39			*40		
		X1	Y1	Z1	X2	Y2	Z2	X3	Y3	Z3	X4	Y4	Z4	X5	Y5	Z5	X6	Y6	Z6	X7	Y7	Z7	X8	Y8	Z8	X9	Y9	Z9	X10	Y10	Z10	X11	Y11	Z11	X12	Y12	Z12	X13	Y13	Z13	X14	Y14	Z14	X15	Y15	Z15	X16	Y16	Z16	X17	Y17	Z17	X18	Y18	Z18	X19	Y19	Z19	X20	Y20	Z20	X21	Y21	Z21	X22	Y22	Z22	X23	Y23	Z23	X24	Y24	Z24	X25	Y25	Z25	X26	Y26	Z26	X27	Y27	Z27	X28	Y28	Z28	X29	Y29	Z29	X30	Y30	Z30	X31	Y31	Z31	X32	Y32	Z32	X33	Y33	Z33	X34	Y34	Z34	X35	Y35	Z35	X36	Y36	Z36	X37	Y37	Z37	X38	Y38	Z38	X39	Y39	Z39	X40	Y40	Z40	X41	Y41	Z41
																																																																																																																												
154	1.53	373.8515	1746.70068	1462.58423	375.49225	1722.09143	1604.85681	260.56696	1648.21143	1448.46045	249.89851	1619.69592	1588.46716	222.3035	1511.54382	1511.18359	176.80553	1235.78857	1514.66699	363.09012	1449.81799	1501.89795	421.61255	1279.32874	1505.41321	171.45045	1335.44971	1570.78149	304.24219	1496.1781	1331.86975	317.91943	1297.51599	1245.58862	333.88589	1155.35254	1232.422	378.08347	1028.57813	1230.87976	461.80167	926.73737	1278.42859	422.20923	913.92188	1240.66357	459.31982	859.84888	1242.6311	298.67648	1475.83594	1698.33008	261.29248	1285.6355	1778.04761	266.37244	1138.66846	1790.1925	285.75504	1021.05353	1811.51453	327.72641	891.32214	1796.67407	278.27344	891.68671	1824.995	309.37531	825.72552	1829.93628	407.71844	972.11316	1374.08618	433.86728	979.33057	1623.3075	205.20836	1016.08582	1466.82605	210.66385	1021.24652	1583.66418	320.80478	659.13617	1315.86145	290.52768	474.84167	1328.49731	134.74765	372.59427	1338.44214	-8.47479	205.99545	1375.15234	-38.89608	205.48596	1435.36169	53.40996	63.31912	1342.30261	414.88113	679.14246	1700.97937	447.33591	472.03662	1659.83948	423.72064	284.49292	1671.06995	416.80695	91.67644	1635.74341	380.71658	38.76331	1583.59668	571.4248	39.77343	1642.97998	259.59415	1786.53271	1552.8468	NaN	NaN	NaN
155	1.54	383.62549	1748.52673	1463.72681	385.62497	1724.00354	1605.97888	270.27347	1650.06921	1449.95911	260.11322	1621.65125	1590.29358	232.36702	1513.31836	1512.54968	186.55914	1237.75378	1516.8678	372.88159	1451.57715	1503.14783	431.24979	1280.89551	1506.77087	181.38431	1337.50452	1573.0918	313.58261	1497.49426	1333.09924	325.35382	1298.47766	1247.19861	339.34198	1155.99243	1234.88635	380.3895	1028.04883	1232.30383	459.99515	922.92682	1279.28979	420.29373	912.159	1240.88782	454.9873	856.14795	1243.19226	309.85043	1478.00232	1699.71362	273.33542	1287.70349	1780.29736	279.39923	1140.64026	1792.6167	299.92209	1023.1972	1813.78796	343.04483	893.90082	1798.72095	293.83087	893.84668	1827.30823	325.83453	828.52515	1832.42651	416.81146	974.38849	1374.6582	443.65222	980.0033	1624.76807	214.69792	1017.44995	1469.62268	220.38255	1023.21063	1586.0199	336.84348	661.07306	1316.70508	311.41086	476.62439	1330.04468	155.67488	375.88412	1342.43115	11.5323	209.69228	1379.16309	-18.28915	208.12119	1439.97864	74.54038	68.04271	1343.52966	421.91168	679.76062	1702.28491	451.07281	472.22672	1661.0874	426.40384	284.54953	1671.79211	416.89481	91.74244	1635.87061	380.66324	38.87839	1583.73596	571.41144	39.68861	1643.10339	269.51633	1788.26514	1554.35522	NaN	NaN	NaN
156	1.55	393.23633	1750.34546	1464.69482	395.63452	1725.93457	1606.9447	279.98975	1651.73645	1451.22375	270.21124	1623.43359	1591.61035	242.58273	1515.33398	1514.19373	196.26634	1239.73474	1519.0304	382.64529	1453.25879	1504.26721	440.77686	1282.38293	1507.91211	191.4111	1340.0824	1575.8656	322.98026	1498.6886	1334.1604	332.69397	1299.27002	1248.85022	344.55215	1156.55005	1236.84033	381.73334	1027.83057	1233.12097	458.24313	919.43036	1279.83972	418.14682	910.5611	1240.93738	450.5405	852.88501	1243.67627	320.96298	1480.08264	1700.87354	285.35818	1289.61194	1782.2821	292.48608	1142.63342	1794.99683	314.42456	1025.49646	1816.17908	358.69781	896.67621	1800.80737	309.34726	895.86658	1829.21948	342.46246	831.21497	1834.70288	425.46716	976.80902	1375.19482	453.35965	980.64191	1626.18262	224.0424	1018.88531	1472.33984	229.77303	1025.13977	1588.28284	353.29276	663.09033	1317.45776	332.23373	478.77841	1331.45984	176.66472	378.65176	1346.2959	32.9121	211.71483	1383.26794	2.63365	209.31909	1444.13062	96.60703	72.09446	1345.45764	428.75998	680.29205	1703.57629	453.93124	471.6647	1661.6803	428.98901	284.50104	1672.57654	417.26083	91.89046	1636.17102	380.56686	38.89959	1583.75024	571.37488	39.63872	1643.224	279.35544	1790.03235	1555.54297	NaN	NaN	NaN
157	1.56	402.81509	1752.08228	1465.42041	405.60367	1727.83044	1607.72559	289.50342	1653.47083	1452.51794	280.1243	1625.07458	1592.52527	252.48979	1517.44116	1515.69189	205.80722	1241.66113	1521.10999	392.42346	1454.88684	1505.31128	450.25861	1283.76794	1508.94067	201.44189	1342.35059	1578.41809	332.38089	1499.80359	1335.18079	339.74622	1300.01489	1250.41797	349.578	1157.20105	1238.97559	383.41443	1027.82068	1234.4043	456.11423	916.24622	1280.34668	416.43713	909.46613	1241.22766	446.16864	850.08795	1244.00964	332.36044	1482.29382	1702.22058	297.73447	1291.58154	1784.20117	305.7738	1144.81226	1797.55273	328.87967	1027.73499	1818.35266	374.41714	899.49677	1802.60876	325.19598	898.01385	1831.19153	359.42068	834.08496	1836.88159	434.32376	979.31726	1375.30457	462.89658	981.3454	1627.68372	233.29639	1020.4408	1474.92688	239.10515	1026.88	1590.43506	370.09491	665.25153	1318.11707	352.59332	481.09604	1332.73132	197.43756	380.94705	1349.9519	54.35495	212.95078	1387.35425	24.24873	209.7814	1448.37073	120.14458	75.67222	1347.82922	434.68488	680.17609	1704.46277	457.00674	471.70178	1662.93518	430.76746	284.22528	1672.87732	417.3877	91.92478	1636.18176	380.48795	38.93182	1583.79187	571.34521	39.59986	1643.3175	289.09946	1791.82739	1556.44702	NaN	NaN	NaN
158	1.57	412.25305	1753.80823	1466.02563	415.39368	1729.59314	1608.19495	299.20132	1654.80127	1453.4939	290.11652	1626.73572	1593.66431	262.46582	1519.22705	1517.04016	215.32489	1243.57129	1523.15894	402.23535	1456.35242	1506.2052	459.79868	1285.14343	1509.89954	211.37143	1344.4762	1580.64404	341.68323	1500.96008	1336.2428	346.97159	1300.77014	1252.01721	354.42905	1157.8623	1240.88953	384.34946	1027.73669	1235.37292	454.18134	913.62689	1280.75427	414.43243	908.5434	1241.30054	441.66193	847.80188	1244.28174	343.3049	1484.32996	1702.97424	310.26843	1293.83057	1786.48633	318.9729	1146.92383	1799.83093	343.33353	1029.90198	1820.1344	390.35321	902.47437	1804.33179	341.29813	900.28522	1833.09827	376.5986	837.10724	1838.89905	442.73444	981.70276	1375.59753	472.29007	982.17847	1629.31616	242.50435	1022.11255	1477.31592	248.28731	1028.52527	1592.35559	387.11487	667.34875	1318.80994	372.45581	483.3548	1333.83545	217.91994	382.77621	1353.57715	76.05737	213.45824	1391.09656	46.62598	208.73962	1452.35962	144.90898	78.12129	1350.64441	440.44601	680.39111	1705.35938	459.39087	471.28717	1663.56189	431.45853	284.09604	1672.95471	417.44095	91.9556	1636.0918	380.32001	39.1435	1583.67297	571.34558	39.54989	1643.35254	298.85413	1793.45325	1557.28406	NaN	NaN	NaN
159	1.58	421.74216	1755.16284	1466.45886	425.43475	1731.45544	1608.7677	308.76837	1656.10425	1454.4165	300.26279	1628.43555	1595.02954	272.42545	1520.69238	1518.34656	224.78438	1245.39429	1525.21606	412.08966	1457.69019	1507.00171	469.29126	1286.35889	1510.81677	221.26428	1346.94653	1583.21753	350.95825	1501.81921	1337.21326	352.91345	1301.42651	1253.10156	359.31769	1158.56177	1242.85522	385.50491	1028.05334	1236.48462	452.74368	911.49524	1280.896	412.47565	907.84332	1241.31201	437.32303	845.90845	1244.47278	354.47559	1486.63135	1704.19312	322.61618	1295.86597	1788.22302	332.01816	1148.93787	1801.86084	358.06674	1032.31433	1822.00635	406.1619	905.42444	1805.59644	357.56296	902.65143	1834.93091	394.01059	840.203	1840.81714	451.31317	984.06079	1375.91113	481.50922	983.10681	1630.93164	251.58864	1023.8454	1479.55005	257.37567	1029.97791	1594.21155	403.87021	669.59174	1319.48914	391.70569	485.45663	1334.90186	238.20938	383.90506	1356.97644	99.2834	212.14893	1394.8717	69.62474	206.92899	1456.25647	170.78374	79.58115	1353.40845	445.97482	680.81909	1706.53564	461.58594	471.09283	1664.28125	431.75443	284.27527	1673.2876	417.47614	92.08338	1635.9115	380.46231	39.12367	1583.43555	571.36438	39.50615	1643.42224	308.48651	1794.9668	1557.92468	NaN	NaN	NaN
